<svg width="30" height="30" viewBox="0 0 33 32" fill="none" xmlns="http://www.w3.org/2000/svg">
<path d="M12.8153 26.6668C8.84652 26.6439 5.5636 18.5423 5.5636 14.4163C5.5636 7.67651 10.6196 6.20099 12.5681 6.20099C13.4463 6.20099 14.3839 6.54583 15.2109 6.85099C15.7893 7.06385 16.3874 7.28359 16.7201 7.28359C16.9192 7.28359 17.3884 7.09666 17.8027 6.93265C18.6862 6.58093 19.7855 6.1438 21.0657 6.1438C21.068 6.1438 21.0711 6.1438 21.0733 6.1438C22.0293 6.1438 24.9277 6.35359 26.6703 8.97046L27.0784 9.58385L26.491 10.0271C25.6518 10.6604 24.1205 11.8155 24.1205 14.1035C24.1205 16.8135 25.8547 17.8557 26.6878 18.3569C27.0556 18.5782 27.4363 18.8063 27.4363 19.3053C27.4363 19.631 24.8362 26.6264 21.0604 26.6264C20.1365 26.6264 19.4834 26.3487 18.9074 26.1038C18.3245 25.8558 17.8217 25.6422 16.9908 25.6422C16.5697 25.6422 16.0371 25.8413 15.4733 26.0527C14.7029 26.3403 13.8308 26.6668 12.8413 26.6668H12.8153Z" fill="#fff"/>
<path d="M21.4658 0C21.5641 3.54562 19.0284 6.00542 16.4957 5.85115C16.0784 3.02161 19.0281 0 21.4658 0Z" fill="#fff"/>
</svg>
