<svg width="30" height="30" viewBox="0 0 30 40" fill="none" xmlns="http://www.w3.org/2000/svg">
<path d="M30.3999 16.2643C30.3999 15.083 30.3019 14.221 30.0896 13.3271H16.2864V18.6586H24.3885C24.2253 19.9836 23.3432 21.9789 21.3829 23.3197L21.3554 23.4982L25.7197 26.8021L26.0221 26.8316C28.799 24.3254 30.3999 20.638 30.3999 16.2643Z" fill="#4285F4"/>
<path d="M16.2864 30.3117C20.2558 30.3117 23.5881 29.0347 26.0221 26.8319L21.3829 23.32C20.1415 24.166 18.4752 24.7566 16.2864 24.7566C12.3986 24.7566 9.09893 22.2505 7.92268 18.7866L7.75027 18.8009L3.21218 22.2329L3.15283 22.3942C5.57042 27.0872 10.5363 30.3117 16.2864 30.3117Z" fill="#34A853"/>
<path d="M7.92257 18.7863C7.61221 17.8924 7.43259 16.9345 7.43259 15.9449C7.43259 14.9551 7.61221 13.9974 7.90624 13.1035L7.89802 12.9131L3.30307 9.42603L3.15273 9.4959C2.15633 11.4434 1.58459 13.6303 1.58459 15.9449C1.58459 18.2595 2.15633 20.4463 3.15273 22.3938L7.92257 18.7863Z" fill="#FBBC05"/>
<path d="M16.2863 7.1336C19.0469 7.1336 20.9091 8.29887 21.9709 9.27266L26.12 5.31389C23.5718 2.9993 20.2557 1.57861 16.2863 1.57861C10.5363 1.57861 5.57041 4.80305 3.15283 9.49605L7.90634 13.1037C9.09891 9.63977 12.3986 7.1336 16.2863 7.1336Z" fill="#EB4335"/>
</svg>
