<svg width="160" height="31" viewBox="0 0 160 31" fill="none" xmlns="http://www.w3.org/2000/svg">
<path d="M19.5796 4.09066L30.9827 15.5L19.5796 26.9093C19.0427 27.4465 18.4053 27.8727 17.7039 28.1634C17.0024 28.4541 16.2505 28.6037 15.4912 28.6037C14.7319 28.6037 13.9801 28.4541 13.2786 28.1634C12.5771 27.8727 11.9397 27.4465 11.4028 26.9093L-0.000315094 15.5L11.4028 4.09066C12.4871 3.00575 13.9578 2.39625 15.4912 2.39625C17.0247 2.39625 18.4953 3.00575 19.5796 4.09066V4.09066Z" fill="url(#paint0_linear_519_9799)"/>
<path fill-rule="evenodd" clip-rule="evenodd" d="M17.6001 6.92042C17.0401 6.36444 16.2816 6.05225 15.4909 6.05225C14.7003 6.05225 13.9418 6.36444 13.3818 6.92042L4.80371 15.4632L7.12335 17.767L17.8097 7.12245L17.6001 6.92042ZM19.6799 8.99191L13.1808 15.4655L15.491 17.7666L21.9901 11.293L19.6799 8.99191ZM15.4928 21.5072L23.8703 13.1647L26.1799 15.4634L17.6064 24.0096C17.0468 24.5664 16.2881 24.8792 15.4971 24.8792C14.7061 24.8792 13.9474 24.5664 13.3878 24.0096L8.99882 19.6381L11.3033 17.3309L15.4928 21.5072Z" fill="url(#paint1_linear_519_9799)"/>
<g clip-path="url(#clip0_519_9799)">
<path d="M157.666 12.9789C157.24 12.9789 156.834 12.8779 156.468 12.696C156.123 12.5142 155.839 12.2314 155.636 11.888C155.433 11.5244 155.332 11.1204 155.332 10.6962C155.332 10.272 155.433 9.86796 155.636 9.50435C155.839 9.16094 156.123 8.87813 156.468 8.69632C156.834 8.49431 157.24 8.39331 157.666 8.39331C158.092 8.39331 158.498 8.49431 158.863 8.69632C159.208 8.87813 159.492 9.16094 159.695 9.50435C159.898 9.86796 160 10.272 160 10.6962C160 11.1204 159.898 11.5244 159.695 11.888C159.492 12.2314 159.208 12.5142 158.863 12.696C158.498 12.8779 158.072 12.9789 157.666 12.9789ZM157.666 12.5142C157.909 12.5344 158.153 12.494 158.396 12.4132C158.62 12.3324 158.843 12.191 159.005 12.0092C159.188 11.8274 159.31 11.6254 159.391 11.4032C159.472 11.181 159.512 10.9386 159.492 10.676C159.492 10.4336 159.452 10.1912 159.37 9.94876C159.289 9.72655 159.147 9.50435 158.985 9.34274C158.822 9.16094 158.599 9.01953 158.376 8.93873C158.153 8.83772 157.909 8.79732 157.666 8.79732C157.422 8.79732 157.179 8.83772 156.956 8.93873C156.732 9.03973 156.529 9.18114 156.347 9.34274C156.184 9.52455 156.042 9.72655 155.961 9.94876C155.88 10.171 155.839 10.4134 155.839 10.676C155.819 10.9184 155.86 11.1608 155.941 11.4032C156.022 11.6254 156.164 11.8476 156.347 12.0092C156.529 12.191 156.732 12.3122 156.956 12.4132C157.158 12.494 157.422 12.5344 157.666 12.5142ZM156.854 11.888V9.44374H157.788C158.011 9.42354 158.234 9.50435 158.417 9.64575C158.478 9.70635 158.538 9.76695 158.579 9.84776C158.62 9.92856 158.64 10.0094 158.64 10.1104C158.64 10.2316 158.599 10.373 158.538 10.474C158.457 10.5952 158.335 10.676 158.193 10.7164V10.8376C158.254 10.8376 158.295 10.8376 158.335 10.8578C158.376 10.878 158.417 10.9184 158.457 10.9588C158.518 11.0396 158.538 11.1608 158.538 11.2618V11.9082H158.072V11.2416C158.072 11.2012 158.072 11.181 158.072 11.1406C158.072 11.1204 158.051 11.08 158.031 11.0598C158.011 11.0396 157.99 11.0194 157.95 11.0194C157.909 11.0194 157.889 10.9992 157.848 11.0194H157.341V11.9082H156.854V11.888ZM157.321 10.575H157.788C157.848 10.575 157.889 10.575 157.93 10.5548C157.97 10.5346 158.031 10.5144 158.051 10.474C158.112 10.3932 158.133 10.3124 158.133 10.2114C158.133 10.1104 158.112 10.0296 158.051 9.94876C158.011 9.90836 157.97 9.88816 157.93 9.86796C157.889 9.84776 157.828 9.84776 157.788 9.84776H157.321V10.575Z" fill="white"/>
<path d="M92.9578 20.432C92.6331 20.432 92.3895 20.3512 92.2069 20.1694C92.0242 19.9876 91.9227 19.7048 91.9227 19.3412V13.6042C91.9227 11.7256 91.3342 10.2913 90.1976 9.30149C89.0407 8.31166 87.4576 7.80664 85.4483 7.80664C84.1494 7.80664 83.0128 8.00865 82.1198 8.39246C81.2877 8.73587 80.5367 9.26109 79.9482 9.94791C79.4408 10.5337 79.0754 11.2003 78.8116 11.9074L82.1401 13.0184C82.2822 12.3922 82.6069 11.8266 83.094 11.3822C83.6014 10.9175 84.3727 10.6751 85.3875 10.6751C86.4225 10.6751 87.2141 10.9175 87.6809 11.4226C87.9244 11.6852 88.1071 11.968 88.2289 12.2912C88.3507 12.6144 88.4115 12.9578 88.3913 13.3214V14.3315H83.987C83.9464 14.3315 83.8856 14.3315 83.845 14.3315C82.8505 14.3315 81.8763 14.5133 80.9427 14.8769C80.1105 15.1799 79.4002 15.7253 78.8928 16.4323C78.4057 17.1191 78.1621 17.9878 78.1621 18.9978C78.1621 20.028 78.4057 20.8967 78.8928 21.6037C79.4002 22.3309 80.0902 22.8965 80.9021 23.2399C81.8357 23.6238 82.8099 23.8258 83.8044 23.8056C84.8598 23.8056 85.6919 23.6642 86.3008 23.3611C86.8285 23.1187 87.275 22.7753 87.62 22.3309C87.8433 22.0481 88.0259 21.7249 88.168 21.3815L88.2086 21.2805H89.061V21.4623C89.061 21.7249 89.1219 21.9875 89.2234 22.2299C89.3452 22.4723 89.5278 22.6743 89.7308 22.8359C90.2585 23.1995 90.9079 23.3813 91.5371 23.3611H94.0132V20.432H92.9578ZM88.4115 17.4221C88.4115 18.4726 88.0462 19.3412 87.3156 19.9876C86.5849 20.6139 85.6513 20.9371 84.5147 20.9371C83.6623 20.9371 82.9722 20.7553 82.5257 20.3714C82.3025 20.1896 82.1198 19.9674 81.998 19.7048C81.8763 19.4422 81.8154 19.1594 81.8154 18.8766C81.7951 18.614 81.856 18.3312 81.9777 18.0888C82.0995 17.8464 82.2822 17.6242 82.5054 17.4626C82.9519 17.1393 83.5608 16.9575 84.3118 16.9575H88.4318V17.4221H88.4115Z" fill="white"/>
<path d="M116.118 8.57524C115.326 8.17122 114.454 7.96922 113.581 7.98942C112.424 7.98942 111.531 8.19142 110.902 8.61564C110.293 9.01965 109.785 9.56507 109.44 10.2115L109.4 10.2923H108.649L108.608 10.2115C108.263 9.54487 107.756 8.99945 107.126 8.61564C106.477 8.21162 105.624 8.00962 104.549 8.00962C103.554 8.00962 102.762 8.19142 102.153 8.55503C101.605 8.85804 101.159 9.32266 100.854 9.84788L100.814 9.92868H100.002V8.23182H96.4297V23.3823H100.063V14.393C100.063 13.3022 100.327 12.4336 100.834 11.8477C101.362 11.2417 102.093 10.9387 103.026 10.9387C103.858 10.9387 104.508 11.1609 104.975 11.6255C105.442 12.0699 105.685 12.7568 105.685 13.6456V23.3621H109.318V14.393C109.318 13.3022 109.582 12.4336 110.09 11.8477C110.617 11.2417 111.348 10.9387 112.282 10.9387C113.114 10.9387 113.763 11.1609 114.23 11.6255C114.697 12.0699 114.941 12.7568 114.941 13.6456V23.3621H118.574V13.383C118.574 12.1709 118.351 11.1609 117.884 10.3529C117.518 9.58527 116.889 8.97925 116.118 8.57524Z" fill="white"/>
<path d="M132.964 8.79647C131.868 8.15005 130.569 7.80664 129.067 7.80664C127.565 7.80664 126.226 8.12985 125.089 8.77627C123.952 9.40249 123.039 10.3519 122.41 11.4832C121.781 12.6548 121.456 14.0486 121.456 15.6243V15.9879C121.456 17.5838 121.781 18.9776 122.43 20.129C123.039 21.2805 123.973 22.2097 125.13 22.8359C126.286 23.4823 127.626 23.8056 129.148 23.8056C129.148 23.8056 129.148 23.8056 129.169 23.8056C130.549 23.8056 131.705 23.5833 132.599 23.1591C133.431 22.7753 134.161 22.2501 134.77 21.5835C135.217 21.0987 135.602 20.5533 135.927 19.9876L132.984 18.5938C132.7 19.119 132.314 19.4624 131.848 19.9068L131.827 19.927C131.279 20.432 130.427 20.6745 129.29 20.6745C128.235 20.6947 127.22 20.331 126.429 19.6442C126.043 19.3008 125.738 18.8968 125.515 18.4322C125.333 18.0484 125.231 17.6646 125.191 17.2605L125.17 16.9575C125.353 16.9575 125.475 16.9575 125.475 16.9575H136.455V15.6041C136.455 14.0688 136.15 12.675 135.541 11.5236C134.953 10.4125 134.06 9.46309 132.964 8.79647ZM125.17 14.3315L125.211 14.0082C125.333 13.1396 125.759 12.3518 126.429 11.766C127.078 11.2003 127.971 10.9175 129.067 10.9175C130.122 10.9175 130.995 11.2003 131.645 11.766C131.969 12.0488 132.253 12.3922 132.436 12.776C132.639 13.1598 132.741 13.584 132.781 14.0082V14.3113H125.17V14.3315Z" fill="white"/>
<path d="M53.2568 8.79647C52.1608 8.15005 50.8416 7.80664 49.36 7.80664C47.8581 7.80664 46.5186 8.12985 45.382 8.77627C44.2251 9.40249 43.3118 10.3317 42.7029 11.4832C42.0738 12.6346 41.749 14.0284 41.749 15.6243V15.9879C41.749 17.5838 42.0738 18.9776 42.7232 20.129C43.3321 21.2805 44.2657 22.2097 45.4023 22.8359C46.5592 23.4823 47.8987 23.8056 49.4209 23.8056C49.4209 23.8056 49.4209 23.8056 49.4412 23.8056C50.8213 23.8056 51.9985 23.5833 52.9118 23.1591C53.7439 22.7753 54.4543 22.2501 55.0632 21.5835C55.5097 21.0987 55.8953 20.5533 56.22 19.9876L53.2771 18.5938C52.993 19.1392 52.587 19.5028 52.1202 19.927C51.5723 20.432 50.7198 20.6745 49.5833 20.6745C48.5279 20.6947 47.5131 20.331 46.7215 19.6442C46.3359 19.3008 46.0315 18.8968 45.8082 18.4322C45.6255 18.0484 45.5241 17.6646 45.4835 17.2605V16.9575C45.6255 16.9575 45.7879 16.9575 45.7879 16.9575H56.768V15.6041C56.768 14.0688 56.4636 12.675 55.8547 11.5236C55.2458 10.4125 54.3528 9.46309 53.2568 8.79647ZM45.4429 14.3315L45.4835 13.887H45.5038C45.6458 13.079 46.0721 12.3316 46.6809 11.7862C47.3304 11.2206 48.2234 10.9377 49.3194 10.9377C50.3748 10.9377 51.2475 11.2206 51.897 11.7862C52.2217 12.069 52.5059 12.4124 52.6885 12.7962C52.8915 13.18 52.993 13.6042 53.0336 14.0284V14.3315H45.4429Z" fill="white"/>
<path d="M151.333 16.4323C150.745 15.7859 149.994 15.3011 149.141 15.0183C148.126 14.6547 147.051 14.3719 145.995 14.19L145.123 14.0284C144.514 13.9476 143.925 13.7456 143.397 13.4628C143.174 13.3416 142.992 13.1598 142.87 12.9376C142.748 12.7154 142.687 12.473 142.707 12.2104C142.707 11.9882 142.768 11.7458 142.87 11.5236C142.992 11.3216 143.154 11.1397 143.377 11.0185C143.783 10.7559 144.392 10.6145 145.184 10.6145C145.874 10.5943 146.564 10.7761 147.152 11.1397C147.66 11.463 148.025 12.0084 148.208 12.7558L151.556 11.7256C151.191 10.5741 150.44 9.5843 149.405 8.93788C148.248 8.19045 146.827 7.80664 145.143 7.80664C143.357 7.80664 141.896 8.21065 140.8 8.99848C139.724 9.7863 139.176 10.9377 139.176 12.4124C139.176 13.382 139.44 14.19 139.947 14.7961C140.515 15.4425 141.226 15.9475 142.038 16.2707C142.992 16.6545 143.986 16.9373 144.981 17.1191L145.853 17.2807C146.807 17.4423 147.477 17.6646 147.903 17.9474C148.126 18.0686 148.289 18.2504 148.431 18.4726C148.553 18.6948 148.614 18.9372 148.614 19.1998C148.614 19.4624 148.553 19.725 148.411 19.9472C148.289 20.1694 148.106 20.3714 147.883 20.5128C147.416 20.8563 146.685 21.0179 145.711 21.0179C145.143 21.0179 144.595 20.9169 144.047 20.7553C143.519 20.5734 143.052 20.2502 142.687 19.826C142.322 19.3412 142.078 18.7958 141.956 18.21L138.628 19.0584C138.912 20.5532 139.663 21.7451 140.881 22.5531C142.139 23.4015 143.783 23.8258 145.772 23.8258C147.7 23.8258 149.263 23.4015 150.4 22.5329C151.536 21.6845 152.104 20.4724 152.104 18.8968C152.104 17.8666 151.841 17.0383 151.333 16.4323Z" fill="white"/>
<path d="M71.7678 10.1095H70.9762L70.9357 10.0489C70.5297 9.44289 70.002 8.93788 69.3932 8.53386C68.6828 8.04905 67.6477 7.80664 66.2676 7.80664C66.2473 7.80664 66.227 7.80664 66.2067 7.80664C65.0092 7.80664 63.8524 8.10965 62.8173 8.69547C61.7619 9.30149 60.8892 10.2105 60.3006 11.2812C59.6714 12.4124 59.3467 13.786 59.3467 15.3617V15.8667C59.3467 17.4424 59.6714 18.816 60.3006 19.9472C60.8892 21.0381 61.7619 21.9269 62.8173 22.5329C63.69 23.0177 64.6439 23.3005 65.6384 23.4015C66.6329 23.5025 67.6274 23.4015 68.5813 23.0985C69.109 22.9167 69.5961 22.6541 70.0223 22.2703C70.3471 21.9875 70.6312 21.6441 70.8748 21.2805L70.9154 21.2199H75.3399V8.25105H71.7678V10.1095ZM71.7678 15.7859C71.7678 17.2201 71.3416 18.3312 70.5094 19.1392C69.6367 19.9068 68.5407 20.331 67.3839 20.331C66.227 20.331 65.1107 19.9068 64.2583 19.1392C63.4059 18.3514 62.9797 17.2201 62.9797 15.7859V15.4829C62.9797 14.0284 63.4059 12.8972 64.238 12.1094C65.0904 11.3216 66.2067 10.8973 67.3839 10.9377C68.6422 10.9377 69.6976 11.3418 70.5297 12.1094C71.3619 12.8972 71.7881 14.0284 71.7881 15.4829V15.7859H71.7678Z" fill="white"/>
<path d="M71.7074 25.4014C71.7074 26.1084 71.342 26.4922 70.6723 26.4922H61.8232V29.6233H72.0524C73.0469 29.6233 73.8587 29.3203 74.4473 28.7143C75.0359 28.1083 75.3403 27.3003 75.3403 26.27V25.0176H71.7074V25.4014V25.4014Z" fill="white"/>
</g>
<defs>
<linearGradient id="paint0_linear_519_9799" x1="4.67793" y1="20.8549" x2="27.4703" y2="9.57884" gradientUnits="userSpaceOnUse">
<stop stop-color="#590BD8"/>
<stop offset="1" stop-color="#FF0088"/>
</linearGradient>
<linearGradient id="paint1_linear_519_9799" x1="15.4918" y1="4.34334" x2="15.4918" y2="24.8792" gradientUnits="userSpaceOnUse">
<stop stop-color="white" stop-opacity="0.7"/>
<stop offset="1" stop-color="white"/>
</linearGradient>
<clipPath id="clip0_519_9799">
<rect width="118.251" height="21.7965" fill="white" transform="translate(41.749 7.80664)"/>
</clipPath>
</defs>
</svg>
