<svg width="160" height="160" viewBox="0 0 160 160" fill="none" xmlns="http://www.w3.org/2000/svg">
<path d="M101.113 21.1131L160 80L101.113 138.887C98.3405 141.66 95.0489 143.859 91.4263 145.359C87.8037 146.86 83.9211 147.632 80 147.632C76.0789 147.632 72.1963 146.86 68.5737 145.359C64.9511 143.859 61.6595 141.66 58.8869 138.887L-6.38362e-06 80L58.8869 21.1131C64.4864 15.5136 72.0811 12.3678 80 12.3678C87.9189 12.3678 95.5136 15.5136 101.113 21.1131V21.1131Z" fill="url(#paint0_linear_519_9562)"/>
<path fill-rule="evenodd" clip-rule="evenodd" d="M90.8671 35.7991C87.9815 32.923 84.0735 31.3081 79.9995 31.3081C75.9254 31.3081 72.0175 32.923 69.1319 35.7991L24.9326 79.9895L36.8848 91.9065L91.9472 36.8441L90.8671 35.7991ZM101.582 46.5118L68.0926 80.0009L79.9967 91.905L113.486 58.4158L101.582 46.5118ZM80.0033 111.253L123.166 68.0991L135.066 79.9898L90.8929 124.198C88.0096 127.078 84.1008 128.696 80.0253 128.696C75.9498 128.696 72.041 127.078 69.1577 124.198L46.5443 101.584L58.4174 89.6499L80.0033 111.253Z" fill="url(#paint1_linear_519_9562)"/>
<defs>
<linearGradient id="paint0_linear_519_9562" x1="24.159" y1="107.638" x2="141.836" y2="49.388" gradientUnits="userSpaceOnUse">
<stop stop-color="#6E28E0"/>
<stop offset="1" stop-color="#EB2F93"/>
</linearGradient>
<linearGradient id="paint1_linear_519_9562" x1="79.9992" y1="22.4683" x2="79.9992" y2="128.696" gradientUnits="userSpaceOnUse">
<stop stop-color="white" stop-opacity="0.7"/>
<stop offset="1" stop-color="white"/>
</linearGradient>
</defs>
</svg>
